<svg id="Layer_1" data-name="Layer 1" xmlns="http://www.w3.org/2000/svg" viewBox="0 0 24 24"><defs><style>.cls-1{fill:#444;fill-rule:evenodd;}</style></defs><path class="cls-1" d="M12,0A12,12,0,1,0,24,12,12,12,0,0,0,12,0Zm7.93,5.53a10.19,10.19,0,0,1,2.31,6.38,23.92,23.92,0,0,0-7.13-.33c-.08-.17-.14-.35-.22-.53-.21-.49-.44-1-.68-1.48A13.78,13.78,0,0,0,19.93,5.53ZM12,1.77a10.23,10.23,0,0,1,6.79,2.58A11.56,11.56,0,0,1,13.42,8,55.13,55.13,0,0,0,9.59,2,10.6,10.6,0,0,1,12,1.77Zm-4.36,1a65.8,65.8,0,0,1,3.8,5.93A38.49,38.49,0,0,1,2,9.9,10.31,10.31,0,0,1,7.64,2.73ZM1.74,12V11.7a37.4,37.4,0,0,0,10.53-1.46c.3.58.58,1.16.84,1.75l-.41.11a16.37,16.37,0,0,0-8.33,6.76A10.27,10.27,0,0,1,1.74,12ZM12,22.26A10.21,10.21,0,0,1,5.71,20.1a14.13,14.13,0,0,1,8.05-6.41l.06,0A42.21,42.21,0,0,1,16,21.44,10.16,10.16,0,0,1,12,22.26Zm5.71-1.76a43.42,43.42,0,0,0-2-7.3,14.89,14.89,0,0,1,6.38.44A10.14,10.14,0,0,1,17.71,20.5Z"/></svg>